

mtllib goldbar.mtl

#
# object goldbar
#

v  -2.7273 0.0000 -6.5055
v  2.7273 0.0000 -6.5055
v  2.7273 0.0000 6.5055
v  -2.7273 0.0000 6.5055
v  2.1799 3.0628 -5.6334
v  -2.1799 3.0628 -5.6334
v  -2.1799 3.0628 5.6334
v  2.1799 3.0628 5.6334
v  2.6691 0.3260 6.8040
v  2.2382 2.7369 6.0757
v  -2.2382 2.7369 6.0757
v  -2.6691 0.3260 6.8040
v  3.0922 0.3260 -6.4127
v  2.5930 2.7369 -5.7262
v  2.5930 2.7369 5.7262
v  3.0922 0.3260 6.4127
v  -2.6691 0.3260 -6.8040
v  -2.2382 2.7369 -6.0757
v  2.2382 2.7369 -6.0757
v  2.6691 0.3260 -6.8040
v  -3.0922 0.3260 6.4127
v  -2.5930 2.7369 5.7262
v  -2.5930 2.7369 -5.7262
v  -3.0922 0.3260 -6.4127
v  -2.7273 0.0000 -6.9025
v  2.7273 0.0000 -6.9025
v  2.7273 0.0000 6.9025
v  -2.7273 0.0000 6.9025
v  2.1799 3.0628 -5.9772
v  -2.1799 3.0628 -5.9772
v  -2.1799 3.0628 5.9772
v  2.1799 3.0628 5.9772
v  3.0922 0.3260 -6.8040
v  2.5930 2.7369 -6.0757
v  2.5930 2.7369 6.0757
v  3.0922 0.3260 6.8040
v  -3.0922 0.3260 6.8040
v  -2.5930 2.7369 6.0757
v  -2.5930 2.7369 -6.0757
v  -3.0922 0.3260 -6.8040
v  3.1597 0.0000 -6.5055
v  3.1597 0.0000 6.5055
v  -3.1597 0.0000 6.5055
v  -3.1597 0.0000 -6.5055
v  -2.5255 3.0628 -5.6334
v  -2.5255 3.0628 5.6334
v  2.5255 3.0628 5.6334
v  2.5255 3.0628 -5.6334
v  3.1597 0.0000 -6.9025
v  -3.1597 0.0000 -6.9025
v  -3.1597 0.0000 6.9025
v  3.1597 0.0000 6.9025
v  -2.5255 3.0628 -5.9772
v  2.5255 3.0628 -5.9772
v  2.5255 3.0628 5.9772
v  -2.5255 3.0628 5.9772
# 56 vertices

vn 0.0000 -1.0000 -0.0000
vn 0.0000 1.0000 -0.0000
vn -0.0000 0.2892 0.9573
vn 0.0000 0.2892 0.9573
vn 0.9792 0.2028 0.0000
vn 0.9792 0.2028 -0.0000
vn 0.0000 0.2892 -0.9573
vn -0.0000 0.2892 -0.9573
vn -0.9792 0.2028 -0.0000
vn -0.9792 0.2028 0.0000
vn -0.0000 -0.5962 -0.8029
vn 0.0000 -0.5962 0.8029
vn 0.0000 0.8029 -0.5962
vn -0.0000 0.8029 -0.5962
vn 0.0000 0.8029 0.5962
vn 0.6730 0.3381 -0.6579
vn 0.6730 0.3381 0.6579
vn -0.6730 0.3381 0.6579
vn -0.6730 0.3381 -0.6579
vn 0.7755 -0.6314 0.0000
vn 0.7755 -0.6314 -0.0000
vn -0.7755 -0.6314 -0.0000
vn -0.7755 -0.6314 0.0000
vn -0.6314 0.7755 -0.0000
vn -0.6314 0.7755 0.0000
vn 0.6314 0.7755 -0.0000
vn 0.6172 -0.4484 -0.6466
vn -0.6172 -0.4484 -0.6466
vn -0.6172 -0.4484 0.6466
vn 0.6172 -0.4484 0.6466
vn -0.5207 0.7034 -0.4838
vn 0.5207 0.7034 -0.4838
vn 0.5207 0.7034 0.4838
vn -0.5207 0.7034 0.4838
# 34 vertex normals

vt 0.6374 0.1546 0.0000
vt 0.9268 0.1546 0.0000
vt 0.9268 0.8448 0.0000
vt 0.6374 0.8448 0.0000
vt 0.2024 0.2008 0.0000
vt 0.4337 0.2008 0.0000
vt 0.4337 0.7986 0.0000
vt 0.2024 0.7986 0.0000
vt 0.1764 0.9620 0.0000
vt 0.1993 0.8341 0.0000
vt 0.4368 0.8341 0.0000
vt 0.4596 0.9620 0.0000
vt 0.0388 0.1595 0.0000
vt 0.1667 0.1959 0.0000
vt 0.1667 0.8035 0.0000
vt 0.0388 0.8399 0.0000
vt 0.4596 0.0374 0.0000
vt 0.4368 0.1653 0.0000
vt 0.1993 0.1653 0.0000
vt 0.1764 0.0374 0.0000
vt 0.5972 0.8399 0.0000
vt 0.4693 0.8035 0.0000
vt 0.4693 0.1959 0.0000
vt 0.5972 0.1595 0.0000
vt 0.6374 0.1335 0.0000
vt 0.9268 0.1335 0.0000
vt 0.9268 0.8659 0.0000
vt 0.6374 0.8659 0.0000
vt 0.2024 0.1826 0.0000
vt 0.4337 0.1826 0.0000
vt 0.4337 0.8168 0.0000
vt 0.2024 0.8168 0.0000
vt 0.0388 0.1387 0.0000
vt 0.1667 0.1774 0.0000
vt 0.1667 0.8220 0.0000
vt 0.0388 0.8607 0.0000
vt 0.5972 0.8607 0.0000
vt 0.4693 0.8220 0.0000
vt 0.4693 0.1774 0.0000
vt 0.5972 0.1387 0.0000
vt 0.9498 0.1546 0.0000
vt 0.9498 0.8448 0.0000
vt 0.6145 0.8448 0.0000
vt 0.6145 0.1546 0.0000
vt 0.4520 0.2008 0.0000
vt 0.4520 0.7986 0.0000
vt 0.1840 0.7986 0.0000
vt 0.1840 0.2008 0.0000
vt 0.1540 0.9620 0.0000
vt 0.1805 0.8341 0.0000
vt 0.4556 0.8341 0.0000
vt 0.4821 0.9620 0.0000
vt 0.4821 0.0374 0.0000
vt 0.4556 0.1653 0.0000
vt 0.1805 0.1653 0.0000
vt 0.1540 0.0374 0.0000
vt 0.9498 0.1335 0.0000
vt 0.6145 0.1335 0.0000
vt 0.6145 0.8659 0.0000
vt 0.9498 0.8659 0.0000
vt 0.4520 0.1826 0.0000
vt 0.1840 0.1826 0.0000
vt 0.1840 0.8168 0.0000
vt 0.4520 0.8168 0.0000
vt 0.4627 0.9793 0.0000
vt 0.1733 0.9793 0.0000
vt 0.0215 0.8448 0.0000
vt 0.0215 0.1546 0.0000
vt 0.1733 0.0201 0.0000
vt 0.4627 0.0201 0.0000
vt 0.0215 0.1335 0.0000
vt 0.0215 0.8659 0.0000
vt 0.1504 0.9793 0.0000
vt 0.4857 0.9793 0.0000
vt 0.4857 0.0201 0.0000
vt 0.1504 0.0201 0.0000
# 76 texture coords

g goldbar
usemtl goldbar
s 1
f 1/1/1 2/2/1 3/3/1 4/4/1 
f 5/5/2 6/6/2 7/7/2 8/8/2 
f 9/9/3 10/10/3 11/11/4 12/12/4 
f 13/13/5 14/14/6 15/15/5 16/16/6 
f 17/17/7 18/18/7 19/19/7 20/20/8 
f 21/21/9 22/22/9 23/23/9 24/24/10 
f 25/25/11 26/26/11 2/2/1 1/1/1 
f 27/27/12 28/28/12 4/4/1 3/3/1 
f 29/29/13 30/30/14 6/6/2 5/5/2 
f 31/31/15 32/32/15 8/8/2 7/7/2 
f 33/33/16 34/34/16 14/14/6 13/13/5 
f 35/35/17 36/36/17 16/16/6 15/15/5 
f 37/37/18 38/38/18 22/22/9 21/21/9 
f 39/39/19 40/40/19 24/24/10 23/23/9 
f 2/2/1 41/41/20 42/42/21 3/3/1 
f 4/4/1 43/43/22 44/44/23 1/1/1 
f 6/6/2 45/45/24 46/46/25 7/7/2 
f 8/8/2 47/47/26 48/48/26 5/5/2 
f 36/49/17 35/50/17 10/10/3 9/9/3 
f 38/51/18 37/52/18 12/12/4 11/11/4 
f 40/53/19 39/54/19 18/18/7 17/17/7 
f 34/55/16 33/56/16 20/20/8 19/19/7 
f 26/26/11 49/57/27 41/41/20 2/2/1 
f 1/1/1 44/44/23 50/58/28 25/25/11 
f 28/28/12 51/59/29 43/43/22 4/4/1 
f 3/3/1 42/42/21 52/60/30 27/27/12 
f 30/30/14 53/61/31 45/45/24 6/6/2 
f 5/5/2 48/48/26 54/62/32 29/29/13 
f 32/32/15 55/63/33 47/47/26 8/8/2 
f 7/7/2 46/46/25 56/64/34 31/31/15 
f 10/10/3 32/32/15 31/31/15 11/11/4 
f 12/12/4 28/65/12 27/66/12 9/9/3 
f 14/14/6 48/48/26 47/47/26 15/15/5 
f 16/16/6 42/67/21 41/68/20 13/13/5 
f 18/18/7 30/30/14 29/29/13 19/19/7 
f 20/20/8 26/69/11 25/70/11 17/17/7 
f 22/22/9 46/46/25 45/45/24 23/23/9 
f 24/24/10 44/44/23 43/43/22 21/21/9 
f 34/34/16 54/62/32 48/48/26 14/14/6 
f 13/13/5 41/68/20 49/71/27 33/33/16 
f 36/36/17 52/72/30 42/67/21 16/16/6 
f 15/15/5 47/47/26 55/63/33 35/35/17 
f 38/38/18 56/64/34 46/46/25 22/22/9 
f 21/21/9 43/43/22 51/59/29 37/37/18 
f 40/40/19 50/58/28 44/44/23 24/24/10 
f 23/23/9 45/45/24 53/61/31 39/39/19 
f 35/50/17 55/63/33 32/32/15 10/10/3 
f 9/9/3 27/66/12 52/73/30 36/49/17 
f 37/52/18 51/74/29 28/65/12 12/12/4 
f 11/11/4 31/31/15 56/64/34 38/51/18 
f 39/54/19 53/61/31 30/30/14 18/18/7 
f 17/17/7 25/70/11 50/75/28 40/53/19 
f 33/56/16 49/76/27 26/69/11 20/20/8 
f 19/19/7 29/29/13 54/62/32 34/55/16 
# 54 polygons

